<svg width="20" height="24" viewBox="0 0 20 24" fill="none" xmlns="http://www.w3.org/2000/svg">
<path d="M8.02004 2.40039C7.49491 2.40039 6.99129 2.65325 6.61997 3.10333C6.24865 3.55342 6.04004 4.16387 6.04004 4.80039V16.8004C6.04004 17.4369 6.24865 18.0474 6.61997 18.4974C6.99129 18.9475 7.49491 19.2004 8.02004 19.2004H13.96C14.4852 19.2004 14.9888 18.9475 15.3601 18.4974C15.7314 18.0474 15.94 17.4369 15.94 16.8004V4.80039C15.94 4.16387 15.7314 3.55342 15.3601 3.10333C14.9888 2.65325 14.4852 2.40039 13.96 2.40039H8.02004ZM7.03004 4.80039C7.03004 4.48213 7.13434 4.17691 7.32 3.95186C7.50567 3.72682 7.75748 3.60039 8.02004 3.60039H13.96C14.2226 3.60039 14.4744 3.72682 14.6601 3.95186C14.8457 4.17691 14.95 4.48213 14.95 4.80039V16.8004C14.95 17.1187 14.8457 17.4239 14.6601 17.6489C14.4744 17.874 14.2226 18.0004 13.96 18.0004H8.02004C7.75748 18.0004 7.50567 17.874 7.32 17.6489C7.13434 17.4239 7.03004 17.1187 7.03004 16.8004V4.80039Z" fill="black"/>
<path d="M4.06006 7.19949C4.06007 6.77822 4.15156 6.36436 4.32534 5.99953C4.49912 5.63469 4.74907 5.33173 5.05006 5.12109V17.3995C5.05006 18.1951 5.31082 18.9582 5.77497 19.5208C6.23912 20.0834 6.86865 20.3995 7.52506 20.3995H13.6947C13.521 20.7643 13.271 21.0673 12.97 21.2779C12.669 21.4886 12.3276 21.5995 11.9801 21.5995H7.52506C6.60609 21.5995 5.72475 21.157 5.07493 20.3693C4.42512 19.5817 4.06006 18.5134 4.06006 17.3995V7.19949Z" fill="black"/>
</svg>
