<svg width="25" height="25" viewBox="0 0 25 25" fill="none" xmlns="http://www.w3.org/2000/svg">
<path d="M17.5044 2.36914H7.50439C4.74297 2.36914 2.50439 4.60772 2.50439 7.36914V17.3691C2.50439 20.1306 4.74297 22.3691 7.50439 22.3691H17.5044C20.2658 22.3691 22.5044 20.1306 22.5044 17.3691V7.36914C22.5044 4.60772 20.2658 2.36914 17.5044 2.36914Z" stroke="#000248" stroke-width="1.5" stroke-linecap="round" stroke-linejoin="round"/>
<path d="M16.5046 11.7394C16.628 12.5717 16.4858 13.4217 16.0983 14.1685C15.7108 14.9153 15.0977 15.5209 14.3462 15.8991C13.5947 16.2774 12.743 16.409 11.9124 16.2754C11.0817 16.1417 10.3144 15.7495 9.71943 15.1546C9.12451 14.5597 8.73232 13.7923 8.59866 12.9617C8.46499 12.131 8.59666 11.2793 8.97492 10.5278C9.35318 9.7763 9.95878 9.16318 10.7056 8.77568C11.4524 8.38818 12.3023 8.24603 13.1346 8.36944C13.9835 8.49533 14.7694 8.89091 15.3763 9.49775C15.9831 10.1046 16.3787 10.8905 16.5046 11.7394Z" stroke="#000248" stroke-width="2" stroke-linecap="round" stroke-linejoin="round"/>
<path d="M18.0044 6.86914H18.0144" stroke="#000248" stroke-width="2" stroke-linecap="round" stroke-linejoin="round"/>
</svg>
