<svg width="17" height="17" viewBox="0 0 17 17" fill="none" xmlns="http://www.w3.org/2000/svg">
<path d="M13.1667 7.83398H3.83333C3.09695 7.83398 2.5 8.43094 2.5 9.16732V13.834C2.5 14.5704 3.09695 15.1673 3.83333 15.1673H13.1667C13.903 15.1673 14.5 14.5704 14.5 13.834V9.16732C14.5 8.43094 13.903 7.83398 13.1667 7.83398Z" stroke="#000248" stroke-linecap="round" stroke-linejoin="round"/>
<path d="M5.16699 7.83398V5.16732C5.16699 4.28326 5.51818 3.43542 6.1433 2.8103C6.76842 2.18517 7.61627 1.83398 8.50033 1.83398C9.38438 1.83398 10.2322 2.18517 10.8573 2.8103C11.4825 3.43542 11.8337 4.28326 11.8337 5.16732V7.83398" stroke="#000248" stroke-linecap="round" stroke-linejoin="round"/>
</svg>
