<svg width="70" height="25" viewBox="0 0 70 25" fill="none" xmlns="http://www.w3.org/2000/svg">
<g clip-path="url(#clip0_1555_68)">
<path d="M3.89681 22.936L2.1808 24.6356C1.96545 24.8429 1.68313 24.9699 1.3826 24.9945C1.08206 25.0192 0.782192 24.9401 0.534764 24.7707C0.287336 24.6014 0.107887 24.3525 0.0274066 24.0671C-0.0530735 23.7817 -0.029532 23.4776 0.0939656 23.2074L2.93701 17.2591C2.95505 17.2223 2.96442 17.1821 2.96442 17.1413C2.96442 17.1005 2.95505 17.0602 2.93701 17.0234C3.6584 18.9109 3.98484 20.9218 3.89681 22.936Z" fill="#1C3FA5"/>
<path d="M8.57925 18.2802L3.89659 22.936C3.98828 20.9252 3.6668 18.9168 2.95133 17.0306L0.108287 11.068C-0.0265919 10.797 -0.0583474 10.4876 0.0187561 10.1956C0.0958596 9.90369 0.276738 9.64843 0.52872 9.47598C0.780703 9.30353 1.08717 9.22526 1.39278 9.25531C1.69838 9.28537 1.98296 9.42176 2.19513 9.63985L8.57925 15.9952C8.73314 16.1446 8.85532 16.3225 8.9387 16.5186C9.02209 16.7148 9.06502 16.9252 9.06502 17.1377C9.06502 17.3502 9.02209 17.5607 8.9387 17.7568C8.85532 17.9529 8.73314 18.1308 8.57925 18.2802Z" fill="#3457D9"/>
<path d="M8.45522 2.06307L10.1785 0.363554C10.392 0.151073 10.6751 0.0196387 10.9778 -0.00746987C11.2805 -0.0345784 11.5831 0.0443882 11.8322 0.215444C12.0813 0.386499 12.2607 0.638605 12.3386 0.92711C12.4166 1.21561 12.388 1.5219 12.2581 1.79172L9.42229 7.73288C9.40413 7.77086 9.39472 7.81231 9.39472 7.85427C9.39472 7.89623 9.40413 7.93768 9.42229 7.97566C8.69668 6.08916 8.36771 4.07785 8.45522 2.06307Z" fill="#1C3FA5"/>
<path d="M3.77401 6.71929L8.45667 2.06348C8.36551 4.0749 8.68951 6.08365 9.4092 7.96893L12.245 13.9244C12.3749 14.1942 12.4035 14.5005 12.3255 14.789C12.2476 15.0775 12.0682 15.3296 11.8191 15.5006C11.5701 15.6717 11.2674 15.7507 10.9647 15.7236C10.662 15.6965 10.3789 15.565 10.1654 15.3525L3.77401 8.99721C3.46719 8.69474 3.29492 8.28519 3.29492 7.85825C3.29492 7.43131 3.46719 7.02176 3.77401 6.71929Z" fill="#3457D9"/>
<path d="M19.9873 19.402C19.3043 19.1253 18.711 18.671 18.2712 18.088C17.8453 17.4949 17.619 16.7858 17.6241 16.0601H20.409C20.415 16.2937 20.4682 16.5239 20.5655 16.7372C20.6629 16.9505 20.8025 17.1427 20.9761 17.3026C21.3643 17.6256 21.8643 17.7893 22.3722 17.7596C22.8936 17.7924 23.4096 17.6403 23.8265 17.3311C23.9921 17.1938 24.1245 17.0219 24.2138 16.828C24.3031 16.634 24.3472 16.4229 24.3427 16.21C24.3556 15.8675 24.2301 15.5338 23.9937 15.2817C23.7452 15.0301 23.4454 14.833 23.1139 14.7033C22.7576 14.5676 22.2704 14.4105 21.6596 14.2391C20.9593 14.0506 20.274 13.812 19.6091 13.5251C19.0768 13.2806 18.6127 12.9131 18.2567 12.4539C17.8536 11.8915 17.6539 11.2128 17.6895 10.5259C17.6652 9.83452 17.8554 9.15219 18.2349 8.56933C18.6342 7.99577 19.1951 7.54907 19.8491 7.28399C20.6008 6.9719 21.4109 6.81862 22.2268 6.83412C23.3914 6.78326 24.5394 7.12046 25.4843 7.79099C25.9027 8.10628 26.2462 8.50718 26.491 8.96588C26.7359 9.42458 26.8762 9.9301 26.9022 10.4474H23.9937C23.9866 10.2365 23.9321 10.0299 23.8341 9.8422C23.736 9.65453 23.5968 9.49052 23.4265 9.36197C23.0253 9.06021 22.5279 8.90835 22.0232 8.93352C21.5841 8.91239 21.1523 9.04952 20.8089 9.31912C20.6536 9.4598 20.5325 9.63293 20.4544 9.82574C20.3764 10.0185 20.3435 10.2261 20.3581 10.4331C20.3521 10.5892 20.3795 10.7447 20.4383 10.8899C20.4972 11.035 20.5862 11.1664 20.6998 11.2757C20.9429 11.5133 21.2322 11.7003 21.5506 11.8255C21.8923 11.9612 22.3722 12.1255 23.0048 12.3111C23.7076 12.4995 24.3953 12.7381 25.0626 13.0252C25.6052 13.2728 26.0773 13.6481 26.4368 14.1177C26.8461 14.6724 27.0512 15.3473 27.0185 16.0315C27.0229 16.6993 26.8365 17.3549 26.4804 17.9238C26.1014 18.5385 25.5515 19.034 24.8953 19.352C24.1263 19.7115 23.2818 19.8877 22.4304 19.8661C21.5926 19.8737 20.7617 19.7158 19.9873 19.402Z" fill="#000248"/>
<path d="M29.2173 11.9244C29.5882 11.1768 30.168 10.5482 30.889 10.112C31.61 9.67576 32.4424 9.44991 33.2892 9.4608C33.9887 9.44698 34.6808 9.60402 35.3033 9.91781C35.8461 10.1939 36.3184 10.5869 36.6848 11.0675V9.63932H39.3024V19.7222H36.6848V18.2511C36.3268 18.7449 35.8529 19.1466 35.3033 19.4222C34.6778 19.7426 33.9799 19.9022 33.2746 19.8864C32.4373 19.8977 31.6145 19.6721 30.9042 19.2366C30.1791 18.7814 29.5955 18.1391 29.2173 17.38C28.7877 16.5285 28.5733 15.588 28.5919 14.6379C28.5748 13.6971 28.7893 12.7662 29.2173 11.9244ZM36.314 13.0812C36.0847 12.6567 35.7398 12.3032 35.3178 12.0601C34.9075 11.8282 34.4424 11.7062 33.969 11.7062C33.4956 11.7062 33.0305 11.8282 32.6202 12.0601C32.2019 12.2992 31.8595 12.6478 31.6313 13.0669C31.3732 13.5506 31.2479 14.0921 31.2678 14.6379C31.2564 15.1945 31.389 15.7448 31.6531 16.2374C31.8866 16.6669 32.2331 17.0269 32.6566 17.28C33.053 17.5243 33.5119 17.6531 33.9799 17.6513C34.4573 17.6522 34.9264 17.529 35.3396 17.2943C35.7616 17.0511 36.1065 16.6976 36.3358 16.2731C36.5952 15.7793 36.7228 15.229 36.7066 14.6736C36.7151 14.1187 36.58 13.5708 36.314 13.0812Z" fill="#000248"/>
<path d="M44.4415 6.24121V19.7231H41.8457V6.24121H44.4415Z" fill="#000248"/>
<path d="M56.4889 15.4459H48.9704C49.0018 16.0865 49.2799 16.6915 49.7484 17.1382C50.2122 17.5486 50.8186 17.7684 51.4426 17.7523C51.8711 17.7769 52.2971 17.6734 52.6645 17.4554C53.0318 17.2374 53.3233 16.9152 53.5004 16.5313H56.2998C56.015 17.4922 55.4173 18.335 54.5983 18.9306C53.6989 19.5743 52.6058 19.9036 51.4935 19.866C50.5649 19.8806 49.6481 19.6593 48.8323 19.2233C48.0524 18.7978 47.4137 18.1607 46.9926 17.3882C46.5426 16.5455 46.3174 15.6045 46.3382 14.6532C46.3186 13.6983 46.541 12.7536 46.9854 11.904C47.3967 11.1353 48.0288 10.5022 48.8032 10.0831C49.6264 9.66718 50.5387 9.4502 51.4645 9.4502C52.3902 9.4502 53.3026 9.66718 54.1257 10.0831C54.8841 10.4866 55.5078 11.0966 55.9217 11.8397C56.3602 12.645 56.5805 13.5474 56.5616 14.4604C56.5654 14.7903 56.5411 15.1199 56.4889 15.4459ZM53.8712 13.7321C53.8752 13.4328 53.8121 13.1363 53.6865 12.8635C53.5608 12.5908 53.3757 12.3486 53.1441 12.1539C52.6602 11.7557 52.0447 11.5449 51.4136 11.5613C50.8192 11.5452 50.2405 11.7491 49.7921 12.1325C49.3311 12.5495 49.0437 13.1193 48.985 13.7321H53.8712Z" fill="#000248"/>
<path d="M66.3066 19.7228L63.6526 15.8096L61.3186 19.7228H57.683L61.8639 13.2175L57.5957 6.93359H61.2895L63.9071 10.7968L66.2048 6.93359H69.8404L65.7031 13.3603L70.0077 19.7014L66.3066 19.7228Z" fill="#000248"/>
</g>
<defs>
<clipPath id="clip0_1555_68">
<rect width="70" height="25" fill="white"/>
</clipPath>
</defs>
</svg>
