<svg width="124" height="45" viewBox="0 0 124 45" fill="none" xmlns="http://www.w3.org/2000/svg">
<g clip-path="url(#clip0_1290_30498)">
<path d="M6.90261 41.2853L3.86283 44.3444C3.48134 44.7176 2.98123 44.9461 2.44886 44.9906C1.91649 45.035 1.38528 44.8925 0.946982 44.5877C0.508681 44.2829 0.1908 43.8349 0.0482349 43.3212C-0.0943298 42.8074 -0.0526278 42.26 0.166139 41.7737L5.20239 31.0667C5.23435 31.0006 5.25094 30.9281 5.25094 30.8547C5.25094 30.7812 5.23435 30.7087 5.20239 30.6426C6.48028 34.04 7.05854 37.6597 6.90261 41.2853Z" fill="#1C3FA5"/>
<path d="M15.197 32.9046L6.90204 41.2851C7.06445 37.6656 6.49498 34.0505 5.22758 30.6553L0.191327 19.9226C-0.047601 19.4348 -0.103854 18.8779 0.0327298 18.3524C0.169313 17.8268 0.489727 17.3674 0.936095 17.057C1.38246 16.7465 1.92536 16.6057 2.46671 16.6598C3.00806 16.7139 3.51218 16.9594 3.88801 17.3519L15.197 28.7915C15.4696 29.0605 15.6861 29.3807 15.8338 29.7338C15.9815 30.0868 16.0575 30.4655 16.0575 30.8481C16.0575 31.2306 15.9815 31.6094 15.8338 31.9624C15.6861 32.3154 15.4696 32.6357 15.197 32.9046Z" fill="#3457D9"/>
<path d="M14.9778 3.71489L18.0305 0.655764C18.4086 0.273298 18.9102 0.0367168 19.4464 -0.0120786C19.9826 -0.060874 20.5187 0.0812659 20.96 0.389166C21.4012 0.697066 21.719 1.15086 21.857 1.67016C21.9951 2.18947 21.9445 2.74079 21.7143 3.22646L16.6909 13.9205C16.6588 13.9889 16.6421 14.0635 16.6421 14.1391C16.6421 14.2146 16.6588 14.2892 16.6909 14.3576C15.4056 10.9618 14.8228 7.34149 14.9778 3.71489Z" fill="#1C3FA5"/>
<path d="M6.68534 12.0953L14.9803 3.71484C14.8188 7.3354 15.3928 10.9512 16.6677 14.3447L21.6911 25.0645C21.9213 25.5501 21.9718 26.1014 21.8338 26.6207C21.6957 27.1401 21.3779 27.5938 20.9367 27.9017C20.4955 28.2096 19.9593 28.3518 19.4231 28.303C18.8869 28.2542 18.3854 28.0176 18.0072 27.6351L6.68534 16.1956C6.14183 15.6511 5.83667 14.9139 5.83667 14.1454C5.83667 13.3769 6.14183 12.6398 6.68534 12.0953Z" fill="#3457D9"/>
<path d="M35.4067 34.9221C34.1969 34.4241 33.146 33.6065 32.367 32.5571C31.6125 31.4895 31.2116 30.2131 31.2206 28.9067H36.1538C36.1644 29.3273 36.2587 29.7417 36.4312 30.1256C36.6036 30.5096 36.8509 30.8555 37.1585 31.1432C37.8461 31.7247 38.7318 32.0193 39.6315 31.9659C40.5551 32.0249 41.4692 31.7512 42.2076 31.1946C42.5011 30.9476 42.7356 30.6381 42.8938 30.289C43.052 29.9398 43.1301 29.5598 43.1221 29.1766C43.1449 28.5601 42.9227 27.9595 42.5039 27.5057C42.0637 27.0529 41.5326 26.6981 40.9453 26.4646C40.3142 26.2203 39.4512 25.9376 38.3692 25.6291C37.1286 25.2898 35.9146 24.8602 34.737 24.3437C33.794 23.9037 32.9719 23.2422 32.3412 22.4157C31.6272 21.4034 31.2734 20.1816 31.3365 18.9453C31.2934 17.7008 31.6303 16.4726 32.3026 15.4234C33.0098 14.391 34.0036 13.587 35.162 13.1098C36.4935 12.548 37.9286 12.2721 39.3739 12.3C41.437 12.2085 43.4705 12.8155 45.1444 14.0224C45.8855 14.5899 46.494 15.3115 46.9277 16.1372C47.3614 16.9629 47.61 17.8728 47.656 18.8039H42.5039C42.4914 18.4244 42.3948 18.0524 42.2211 17.7146C42.0474 17.3768 41.8008 17.0816 41.4992 16.8502C40.7884 16.307 39.9073 16.0337 39.0133 16.079C38.2354 16.0409 37.4705 16.2878 36.8622 16.773C36.5872 17.0263 36.3726 17.3379 36.2344 17.685C36.0961 18.032 36.0378 18.4056 36.0637 18.7782C36.0531 19.0591 36.1015 19.3392 36.2058 19.6004C36.31 19.8616 36.4678 20.0981 36.669 20.2949C37.0996 20.7225 37.6122 21.0591 38.176 21.2846C38.7814 21.5288 39.6315 21.8245 40.7521 22.1587C41.997 22.4977 43.2153 22.9273 44.3973 23.444C45.3586 23.8896 46.1948 24.5651 46.8317 25.4106C47.5566 26.409 47.92 27.6237 47.8621 28.8553C47.8699 30.0573 47.5396 31.2374 46.909 32.2615C46.2376 33.3679 45.2634 34.2598 44.101 34.8322C42.7388 35.4794 41.2428 35.7964 39.7346 35.7576C38.2504 35.7713 36.7787 35.4872 35.4067 34.9221Z" fill="white"/>
<path d="M51.7559 21.4653C52.413 20.1196 53.4401 18.9881 54.7173 18.2029C55.9944 17.4177 57.469 17.0112 58.969 17.0308C60.2082 17.0059 61.4342 17.2886 62.5369 17.8534C63.4985 18.3504 64.335 19.0579 64.9842 19.9228V17.3521H69.6211V35.5012H64.9842V32.8534C64.3501 33.7422 63.5106 34.4653 62.5369 34.9614C61.4288 35.538 60.1926 35.8254 58.9432 35.7969C57.4601 35.8172 56.0024 35.4111 54.7442 34.6272C53.4597 33.8079 52.4259 32.6518 51.7559 31.2853C50.9951 29.7526 50.6151 28.0597 50.6482 26.3496C50.6179 24.6562 50.9979 22.9806 51.7559 21.4653ZM64.3273 23.5475C63.9211 22.7835 63.3102 22.1471 62.5626 21.7095C61.8358 21.2922 61.0119 21.0726 60.1733 21.0726C59.3348 21.0726 58.5109 21.2922 57.784 21.7095C57.043 22.1398 56.4365 22.7673 56.0323 23.5218C55.575 24.3925 55.353 25.3672 55.3882 26.3496C55.3682 27.3515 55.603 28.3421 56.0709 29.2288C56.4845 30.0017 57.0983 30.6498 57.8484 31.1054C58.5507 31.5451 59.3636 31.7769 60.1926 31.7737C61.0383 31.7754 61.8693 31.5536 62.6013 31.1311C63.3488 30.6934 63.9598 30.0571 64.3659 29.293C64.8254 28.4042 65.0514 27.4136 65.0228 26.4138C65.0379 25.415 64.7985 24.4288 64.3273 23.5475Z" fill="white"/>
<path d="M78.7265 11.2344V35.5017H74.1282V11.2344H78.7265Z" fill="white"/>
<path d="M100.066 27.802H86.7476C86.8031 28.9551 87.2958 30.044 88.1258 30.8482C88.9473 31.5868 90.0216 31.9825 91.1269 31.9536C91.886 31.9979 92.6406 31.8115 93.2913 31.4191C93.9421 31.0267 94.4583 30.4468 94.7721 29.7557H99.7311C99.2266 31.4854 98.1679 33.0024 96.7171 34.0745C95.1237 35.2331 93.1875 35.8259 91.2171 35.7583C89.572 35.7846 87.9481 35.3861 86.5029 34.6014C85.1213 33.8354 83.99 32.6886 83.2441 31.2981C82.4468 29.7813 82.048 28.0876 82.0849 26.3752C82.0501 24.6564 82.4441 22.9559 83.2312 21.4266C83.9599 20.043 85.0795 18.9034 86.4513 18.149C87.9095 17.4003 89.5257 17.0098 91.1656 17.0098C92.8055 17.0098 94.4216 17.4003 95.8798 18.149C97.2233 18.8753 98.328 19.9733 99.0613 21.311C99.8381 22.7604 100.228 24.3848 100.195 26.0282C100.202 26.622 100.158 27.2153 100.066 27.802ZM95.429 24.7171C95.436 24.1784 95.3243 23.6447 95.1017 23.1538C94.8791 22.6629 94.5511 22.2269 94.141 21.8765C93.2837 21.1597 92.1935 20.7803 91.0754 20.8097C90.0226 20.7808 88.9974 21.1479 88.2031 21.8379C87.3866 22.5886 86.8773 23.6141 86.7734 24.7171H95.429Z" fill="white"/>
<path d="M117.458 35.501L112.757 28.4573L108.622 35.501H102.182L109.588 23.7915L102.028 12.4805H108.571L113.208 19.4342L117.278 12.4805H123.718L116.389 24.0486L124.014 35.4625L117.458 35.501Z" fill="white"/>
</g>
<defs>
<clipPath id="clip0_1290_30498">
<rect width="124" height="45" fill="white"/>
</clipPath>
</defs>
</svg>
