<svg width="23" height="21" viewBox="0 0 23 21" fill="none" xmlns="http://www.w3.org/2000/svg">
<path d="M7.50229 13.4936C7.20562 13.4936 6.91561 13.4056 6.66894 13.2408C6.42226 13.076 6.23 12.8417 6.11647 12.5676C6.00294 12.2935 5.97324 11.9919 6.03111 11.7009C6.08899 11.41 6.23185 11.1427 6.44163 10.9329C6.65141 10.7231 6.91869 10.5803 7.20966 10.5224C7.50063 10.4645 7.80223 10.4942 8.07632 10.6078C8.35041 10.7213 8.58467 10.9135 8.7495 11.1602C8.91432 11.4069 9.00229 11.6969 9.00229 11.9936C9.00185 12.3913 8.84367 12.7725 8.56246 13.0537C8.28125 13.3349 7.89998 13.4931 7.50229 13.4936ZM15.0023 10.4936C14.7056 10.4936 14.4156 10.5815 14.1689 10.7464C13.9223 10.9112 13.73 11.1455 13.6165 11.4195C13.5029 11.6936 13.4732 11.9952 13.5311 12.2862C13.589 12.5772 13.7319 12.8445 13.9416 13.0542C14.1514 13.264 14.4187 13.4069 14.7097 13.4648C15.0006 13.5226 15.3022 13.4929 15.5763 13.3794C15.8504 13.2659 16.0847 13.0736 16.2495 12.8269C16.4143 12.5803 16.5023 12.2902 16.5023 11.9936C16.5018 11.5959 16.3437 11.2146 16.0625 10.9334C15.7812 10.6522 15.4 10.494 15.0023 10.4936ZM14.0044 15.4523C13.1533 15.8908 12.2098 16.1196 11.2523 16.1196C10.2949 16.1196 9.35136 15.8908 8.50026 15.4523C8.32379 15.3636 8.11946 15.3481 7.93161 15.4091C7.74377 15.4701 7.58758 15.6028 7.49697 15.7783C7.40635 15.9538 7.38863 16.158 7.44764 16.3464C7.50664 16.5349 7.63762 16.6925 7.81214 16.785C8.87605 17.3332 10.0555 17.6192 11.2523 17.6192C12.4491 17.6192 13.6286 17.3332 14.6925 16.785C14.7811 16.7405 14.86 16.6788 14.9246 16.6036C14.9893 16.5284 15.0383 16.441 15.069 16.3467C15.0996 16.2524 15.1112 16.153 15.1032 16.0541C15.0951 15.9553 15.0676 15.859 15.0221 15.7709C14.9766 15.6828 14.9141 15.6045 14.8381 15.5407C14.7622 15.4769 14.6744 15.4288 14.5797 15.3992C14.4851 15.3696 14.3855 15.359 14.2868 15.3681C14.188 15.3772 14.092 15.4059 14.0044 15.4523ZM21.5324 11.5764C21.6781 12.0775 21.7521 12.5967 21.7523 13.1186C21.7523 15.175 20.6234 17.0891 18.5735 18.5083C16.6078 19.869 14.0076 20.6186 11.2523 20.6186C8.49698 20.6186 5.89682 19.8691 3.93107 18.5083C1.88123 17.089 0.752293 15.1749 0.752293 13.1186C0.752515 12.5967 0.826529 12.0775 0.972136 11.5764C0.391114 11.0436 0.0432349 10.3034 0.00376499 9.51605C-0.0357049 8.7287 0.236409 7.95746 0.761231 7.3692C1.28605 6.78095 2.02138 6.42297 2.80813 6.37274C3.59487 6.3225 4.36975 6.58404 4.96514 7.10076C6.6007 6.23189 8.56701 5.72207 10.6144 5.63386L11.2625 1.74529C11.295 1.55071 11.4028 1.37674 11.5626 1.26107C11.7224 1.1454 11.9213 1.09734 12.1163 1.12729L14.8952 1.55479C15.1462 1.08722 15.5545 0.723426 16.0477 0.527715C16.541 0.332003 17.0876 0.316974 17.5909 0.485281C18.0942 0.653589 18.5218 0.994398 18.7981 1.44747C19.0744 1.90055 19.1817 2.43672 19.1009 2.96123C19.0202 3.48574 18.7566 3.96481 18.3568 4.31378C17.9569 4.66274 17.4466 4.85914 16.916 4.86825C16.3854 4.87736 15.8687 4.6986 15.4571 4.36356C15.0455 4.02852 14.7657 3.55878 14.6669 3.03736L12.6204 2.72245L12.1332 5.6452C14.093 5.76211 15.9687 6.2662 17.5394 7.10076C18.1348 6.58404 18.9097 6.3225 19.6965 6.37274C20.4832 6.42297 21.2185 6.78095 21.7434 7.3692C22.2682 7.95746 22.5403 8.7287 22.5008 9.51605C22.4613 10.3034 22.1135 11.0436 21.5324 11.5764ZM16.1273 2.61857C16.1273 2.76691 16.1713 2.91192 16.2537 3.03525C16.3361 3.15859 16.4532 3.25472 16.5903 3.31148C16.7273 3.36825 16.8781 3.3831 17.0236 3.35416C17.1691 3.32522 17.3027 3.25379 17.4076 3.1489C17.5125 3.04402 17.5839 2.91038 17.6129 2.76489C17.6418 2.61941 17.627 2.46861 17.5702 2.33156C17.5134 2.19452 17.4173 2.07738 17.294 1.99497C17.1706 1.91256 17.0256 1.86857 16.8773 1.86857C16.6785 1.86882 16.4878 1.94792 16.3472 2.08852C16.2066 2.22912 16.1275 2.41974 16.1273 2.61857ZM21.0023 9.36858C21.0023 9.05184 20.902 8.74324 20.7158 8.48699C20.5296 8.23075 20.2671 8.04 19.9659 7.94209C19.6647 7.84417 19.3402 7.84412 19.039 7.94193C18.7377 8.03974 18.4751 8.23039 18.2889 8.48658C18.1807 8.63503 18.0218 8.73862 17.8423 8.77771C17.6628 8.81679 17.4752 8.78866 17.3151 8.69864C17.3016 8.69107 17.2884 8.68314 17.2755 8.67482C15.6164 7.67142 13.4791 7.11895 11.2544 7.11858L11.2532 7.11867H11.2514C9.0262 7.11876 6.8886 7.67123 5.22914 8.67482C5.21807 8.68195 5.20682 8.68879 5.19529 8.69545C5.03498 8.78752 4.84631 8.81712 4.6655 8.77857C4.4847 8.74002 4.32451 8.63603 4.2157 8.48658C4.08465 8.30631 3.91508 8.15752 3.71932 8.051C3.52355 7.94448 3.30652 7.88291 3.08398 7.87078C2.86145 7.85864 2.63901 7.89624 2.43282 7.98084C2.22664 8.06544 2.04189 8.19492 1.89202 8.35986C1.74214 8.5248 1.63089 8.72106 1.56637 8.93438C1.50184 9.1477 1.48565 9.37271 1.51898 9.59307C1.5523 9.81343 1.63431 10.0236 1.75903 10.2083C1.88375 10.393 2.04806 10.5476 2.24001 10.6608C2.39687 10.7537 2.51456 10.9005 2.57106 11.0737C2.62757 11.247 2.61903 11.435 2.54704 11.6025C2.3535 12.0845 2.25347 12.5991 2.25229 13.1186C2.25229 14.6683 3.15173 16.1442 4.78495 17.2749C6.50226 18.4638 8.79904 19.1186 11.2523 19.1186C13.7055 19.1186 16.0023 18.4638 17.7196 17.2749C19.3529 16.1443 20.2523 14.6682 20.2523 13.1186C20.2511 12.5977 20.1506 12.0817 19.956 11.5985C19.8853 11.4313 19.8776 11.2442 19.9343 11.0718C19.991 10.8993 20.1084 10.7533 20.2646 10.6608C20.4888 10.5276 20.6746 10.3385 20.8039 10.112C20.9332 9.88551 21.0015 9.62937 21.0023 9.36858Z" fill="#000248"/>
</svg>
