<svg width="24" height="25" viewBox="0 0 24 25" fill="none" xmlns="http://www.w3.org/2000/svg">
<path d="M19.5522 3.36507C19.3115 3.38259 19.0751 3.43908 18.8525 3.53232H18.8495C18.6357 3.61707 17.6195 4.04457 16.0745 4.69257L10.538 7.02432C6.56522 8.69682 2.65997 10.3438 2.65997 10.3438L2.70647 10.3258C2.70647 10.3258 2.43722 10.4143 2.15597 10.6071C1.98222 10.7176 1.8327 10.8623 1.71647 11.0323C1.57847 11.2348 1.46747 11.5446 1.50872 11.8648C1.57622 12.4063 1.92722 12.7311 2.17922 12.9103C2.43422 13.0918 2.67722 13.1766 2.67722 13.1766H2.68322L6.34547 14.4103C6.50972 14.9376 7.46147 18.0666 7.69022 18.7873C7.82522 19.2178 7.95647 19.4871 8.12072 19.6926C8.20022 19.7976 8.29322 19.8853 8.40497 19.9558C8.46307 19.9896 8.52501 20.0163 8.58947 20.0353L8.55197 20.0263C8.56322 20.0293 8.57222 20.0383 8.58047 20.0413C8.61047 20.0496 8.63072 20.0526 8.66897 20.0586C9.24872 20.2341 9.71447 19.8741 9.71447 19.8741L9.74072 19.8531L11.903 17.8843L15.527 20.6646L15.6095 20.6998C16.3647 21.0313 17.1297 20.8468 17.534 20.5213C17.9412 20.1936 18.0995 19.7743 18.0995 19.7743L18.1257 19.7068L20.9262 5.36007C21.0057 5.00607 21.026 4.67457 20.9382 4.35282C20.8477 4.02719 20.6388 3.74713 20.3525 3.56757C20.112 3.42141 19.8332 3.35086 19.5522 3.36507ZM19.4765 4.90257C19.4735 4.94982 19.4825 4.94457 19.4615 5.03532V5.04357L16.6872 19.2411C16.6752 19.2613 16.655 19.3056 16.5995 19.3498C16.541 19.3963 16.4945 19.4256 16.2507 19.3288L11.8182 15.9306L9.14072 18.3711L9.70322 14.7786L16.9452 8.02857C17.2437 7.75107 17.144 7.69257 17.144 7.69257C17.165 7.35207 16.6932 7.59282 16.6932 7.59282L7.56122 13.2501L7.55822 13.2351L3.18122 11.7613V11.7583L3.16997 11.7561C3.17765 11.7535 3.18516 11.7505 3.19247 11.7471L3.21647 11.7351L3.23972 11.7268C3.23972 11.7268 7.14797 10.0798 11.1207 8.40732C13.1097 7.56957 15.1137 6.72582 16.655 6.07482C18.1962 5.42757 19.3355 4.95282 19.4 4.92732C19.4615 4.90332 19.4322 4.90332 19.4765 4.90332V4.90257Z" fill="#000248"/>
</svg>
