<svg width="149" height="149" viewBox="0 0 149 149" fill="none" xmlns="http://www.w3.org/2000/svg">
<path d="M145.517 51.9855C140.841 37.2382 131.691 24.3122 119.335 15.0017C106.98 5.6912 92.0324 0.458071 76.5677 0.0286986C61.103 -0.400674 45.8882 3.99501 33.0352 12.6056C20.1822 21.2162 10.3286 33.6145 4.84214 48.0797L28.9359 57.2181C32.5246 47.7563 38.97 39.6464 47.3773 34.0141C55.7846 28.3818 65.7368 25.5065 75.8525 25.7874C85.9682 26.0682 95.7455 29.4913 103.827 35.5814C111.909 41.6715 117.895 50.1266 120.953 59.773L145.517 51.9855Z" fill="#375BD2"/>
<path d="M17.8494 122.883C28.9677 135.901 44.2301 144.693 61.0693 147.779C77.9085 150.866 95.2968 148.058 110.309 139.83C125.322 131.601 137.042 118.453 143.498 102.597C149.955 86.742 150.754 69.1466 145.761 52.7713L121.113 60.287C124.379 70.9983 123.856 82.5077 119.633 92.8789C115.409 103.25 107.743 111.85 97.9232 117.233C88.1035 122.615 76.7295 124.452 65.7148 122.433C54.7001 120.414 44.7167 114.663 37.4441 106.148L17.8494 122.883Z" fill="#FFDF78"/>
<path d="M43.2271 6.88152C26.4309 14.6496 13.1269 28.3909 5.90585 45.4295C-1.31519 62.4682 -1.93637 81.5844 4.16326 99.0559L28.4918 90.5623C24.502 79.134 24.9083 66.6298 29.6317 55.4846C34.3551 44.3394 43.0574 35.3511 54.044 30.2699L43.2271 6.88152Z" fill="#FF8989"/>
<path d="M4.04887 98.7258C7.91206 109.96 14.406 120.108 22.9889 128.322C31.5718 136.537 41.9947 142.579 53.3879 145.946L60.6903 121.234C53.2378 119.032 46.4201 115.079 40.8059 109.706C35.1917 104.333 30.944 97.6951 28.417 90.3464L4.04887 98.7258Z" fill="#535478"/>
</svg>
