<svg width="24" height="25" viewBox="0 0 24 25" fill="none" xmlns="http://www.w3.org/2000/svg">
<path d="M23 3.36943C22.0424 4.04491 20.9821 4.56154 19.86 4.89943C19.2577 4.20694 18.4573 3.71612 17.567 3.49336C16.6767 3.27059 15.7395 3.32663 14.8821 3.65388C14.0247 3.98114 13.2884 4.56383 12.773 5.32315C12.2575 6.08246 11.9877 6.98177 12 7.89943V8.89943C10.2426 8.945 8.50127 8.55524 6.93101 7.76488C5.36074 6.97451 4.01032 5.80807 3 4.36943C3 4.36943 -1 13.3694 8 17.3694C5.94053 18.7674 3.48716 19.4684 1 19.3694C10 24.3694 21 19.3694 21 7.86943C20.9991 7.59088 20.9723 7.31303 20.92 7.03943C21.9406 6.03292 22.6608 4.76214 23 3.36943V3.36943Z" stroke="#000248" stroke-width="1.5" stroke-linecap="round" stroke-linejoin="round"/>
</svg>
